HIERARCHY
ROOT root
{
	OFFSET 0.000000 0.000000 0.000000
	CHANNELS 6 Xposition Yposition Zposition Zrotation Yrotation Xrotation
	JOINT lhip
	{
		OFFSET 0.058581 -0.082280 -0.017664
		CHANNELS 3 Zrotation Yrotation Xrotation
		JOINT lknee
		{
			OFFSET 0.043451 -0.386469 0.008037
			CHANNELS 3 Zrotation Yrotation Xrotation
			JOINT lankle
			{
				OFFSET -0.014790 -0.426874 -0.037428
				CHANNELS 3 Zrotation Yrotation Xrotation
				JOINT ltoe
				{
					OFFSET 0.041054 -0.060286 0.122042
					CHANNELS 3 Zrotation Yrotation Xrotation
					End Site
					{
						OFFSET 0.000000 0.000000 0.000000
					}
				}
			}
		}
	}
	JOINT rhip
	{
		OFFSET -0.060310 -0.090513 -0.013543
		CHANNELS 3 Zrotation Yrotation Xrotation
		JOINT rknee
		{
			OFFSET -0.043257 -0.383688 -0.004843
			CHANNELS 3 Zrotation Yrotation Xrotation
			JOINT rankle
			{
				OFFSET 0.019056 -0.420046 -0.034562
				CHANNELS 3 Zrotation Yrotation Xrotation
				JOINT rtoe
				{
					OFFSET -0.034840 -0.062106 0.130323
					CHANNELS 3 Zrotation Yrotation Xrotation
					End Site
					{
						OFFSET 0.000000 0.000000 0.000000
					}
				}
			}
		}
	}
	JOINT lowerback
	{
		OFFSET 0.004439 0.124404 -0.038385
		CHANNELS 3 Zrotation Yrotation Xrotation
		JOINT upperback
		{
			OFFSET 0.004488 0.137956 0.026820
			CHANNELS 3 Zrotation Yrotation Xrotation
			JOINT chest
			{
				OFFSET -0.002265 0.056032 0.002855
				CHANNELS 3 Zrotation Yrotation Xrotation
				JOINT lowerneck
				{
					OFFSET -0.013390 0.211636 -0.033468
					CHANNELS 3 Zrotation Yrotation Xrotation
					JOINT upperneck
					{
						OFFSET 0.010113 0.088937 0.050410
						CHANNELS 3 Zrotation Yrotation Xrotation
						End Site
						{
							OFFSET 0.000000 0.000000 0.000000
						}
					}
				}
				JOINT lclavicle
				{
					OFFSET 0.071702 0.114000 -0.018898
					CHANNELS 3 Zrotation Yrotation Xrotation
					JOINT lshoulder
					{
						OFFSET 0.122921 0.045205 -0.019046
						CHANNELS 3 Zrotation Yrotation Xrotation
						JOINT lelbow
						{
							OFFSET 0.255332 -0.015649 -0.022946
							CHANNELS 3 Zrotation Yrotation Xrotation
							JOINT lwrist
							{
								OFFSET 0.265709 0.012698 -0.007375
								CHANNELS 3 Zrotation Yrotation Xrotation
								End Site
								{
									OFFSET 0.000000 0.000000 0.000000
								}
							}
						}
					}
				}
				JOINT rclavicle
				{
					OFFSET -0.082954 0.112472 -0.023707
					CHANNELS 3 Zrotation Yrotation Xrotation
					JOINT rshoulder
					{
						OFFSET -0.113228 0.046853 -0.008472
						CHANNELS 3 Zrotation Yrotation Xrotation
						JOINT relbow
						{
							OFFSET -0.260127 -0.014369 -0.031269
							CHANNELS 3 Zrotation Yrotation Xrotation
							JOINT rwrist
							{
								OFFSET -0.269108 0.006794 -0.006027
								CHANNELS 3 Zrotation Yrotation Xrotation
								End Site
								{
									OFFSET 0.000000 0.000000 0.000000
								}
							}
						}
					}
				}
			}
		}
	}
}
MOTION
Frames: 7
Frame Time: 0.033333
1.160259 0.176049 1.124673 -86.664958 2.909252 85.653741 0.161346 -0.162954 6.832214 -3.380567 -12.723062 1.749911 5.157341 8.216991 -14.703308 0.000000 -0.000000 0.000000 4.075971 -0.355652 4.374249 4.153371 0.691337 6.087082 2.749124 -3.000826 -9.462214 0.000000 -0.000000 0.000000 -2.342356 1.219306 7.969271 2.618602 -3.896402 5.042825 0.128352 -3.100134 6.066899 4.219436 -10.331510 13.056624 4.244206 -13.659910 11.759653 -24.603589 9.209212 3.937745 -60.142025 -9.084012 5.187555 14.324570 -28.804596 -16.923867 5.392091 -0.038167 -23.592949 21.911077 -7.446189 -1.651035 63.929560 -1.357925 14.836534 -22.645519 49.449366 -5.093564 2.147251 3.588301 -10.045028 
1.160295 0.175622 1.124967 -86.518822 3.197166 86.318416 0.402389 0.018568 6.002364 -3.178916 -13.535558 1.922485 5.092645 8.377076 -15.139764 0.000000 -0.000000 0.000000 4.445622 -0.645399 3.617279 4.081689 1.124026 6.131563 3.028112 -3.527880 -9.571655 0.000000 -0.000000 0.000000 -2.243279 1.088479 6.600944 2.966459 -3.800867 5.805692 -0.009785 -3.115732 5.892638 4.760380 -10.323450 13.567794 3.337852 -14.213917 11.989741 -24.093375 8.942300 4.089318 -61.321585 -7.974070 8.689104 10.966491 -32.635344 -0.640936 1.052321 1.243211 -16.346491 22.522225 -7.372694 -0.946185 62.332664 1.443931 10.237801 -19.020219 33.534145 -5.977416 5.840847 -2.143806 -8.655101 
1.159890 0.175442 1.125457 -86.454165 3.274889 86.339554 0.472867 -0.051718 5.947466 -3.220049 -13.377139 2.110190 5.201624 8.039167 -15.047715 0.000000 -0.000000 0.000000 4.517053 -0.594857 3.603089 4.059018 0.747602 6.255371 2.916562 -3.383538 -9.646102 0.000000 -0.000000 0.000000 -2.154486 0.978613 6.645386 2.994158 -3.784627 5.734319 -0.026062 -3.180651 5.915761 4.828058 -10.086151 13.548318 3.289328 -13.989584 12.168661 -23.784605 8.807095 4.325720 -61.881168 -8.512511 9.703025 11.763817 -35.564298 0.336702 2.382586 0.866421 -16.140212 22.287872 -7.098138 -0.700396 62.332205 1.363520 10.604184 -18.684251 34.516440 -5.537186 4.753810 -0.896959 -10.079379 
1.159836 0.175775 1.125454 -86.538258 3.407171 86.333011 0.704195 -0.078941 5.882941 -3.303285 -13.155142 2.251573 5.078652 8.075850 -15.339081 0.000000 -0.000000 0.000000 4.784282 -0.549250 3.633286 3.891281 0.776222 6.313860 2.797528 -3.322821 -9.540923 0.000000 -0.000000 0.000000 -2.130261 0.913004 6.635839 3.160616 -3.767280 5.889216 0.005097 -3.179195 5.932162 4.936753 -10.168095 13.232720 3.139900 -14.299178 12.071710 -23.762050 8.711156 4.092939 -61.881845 -9.084055 10.288056 12.084367 -38.941594 0.792498 2.211584 0.791042 -16.539548 22.078939 -6.844366 -0.923094 62.472179 1.560425 11.011015 -19.214593 35.679508 -5.797182 4.188177 -1.158930 -10.655794 
1.159150 0.175510 1.125281 -86.654019 3.445868 86.240580 0.705518 0.036246 6.080002 -3.183620 -13.131507 2.178338 4.881584 8.126441 -15.548851 0.000000 -0.000000 0.000000 4.809134 -0.657435 3.777849 3.910654 0.606269 6.228293 2.868034 -3.167705 -10.043329 0.000000 -0.000000 0.000000 -2.116145 0.874912 6.755460 3.159048 -3.760942 5.912470 0.092617 -3.195849 5.835343 4.904922 -10.371820 13.200253 3.037743 -14.454907 12.344930 -23.645011 8.610683 4.186164 -62.022935 -9.247463 10.519057 12.530004 -40.614243 0.716584 1.790562 0.244118 -16.918066 22.172946 -6.770178 -0.914667 62.118485 1.832728 10.858169 -18.938172 36.589269 -5.246414 5.768535 -0.563073 -10.104637 
1.158830 0.175466 1.125532 -86.726576 3.532962 86.220588 0.906153 0.173535 6.025850 -3.437902 -13.030114 2.500779 4.927559 8.039789 -15.738505 0.000000 -0.000000 0.000000 5.002392 -0.739541 3.824673 3.748385 0.874462 6.357635 2.732786 -3.044140 -9.907447 0.000000 -0.000000 0.000000 -2.091327 0.759549 6.778085 3.253524 -3.809437 5.951671 0.047230 -3.151673 5.767888 5.139007 -10.632087 13.158936 3.007698 -14.825574 12.592684 -23.619824 8.650045 4.029799 -62.079647 -9.648754 10.748302 12.515972 -41.928470 1.226700 1.921527 0.354208 -16.559387 22.182437 -6.754082 -1.053244 62.140452 1.880392 11.014552 -18.998210 37.394510 -4.917800 6.309408 -0.691798 -10.213694 
1.158683 0.175367 1.125380 -86.762616 3.619362 86.334857 0.946455 -0.019795 5.945123 -3.244051 -13.131469 2.436913 5.028593 7.964062 -15.884150 0.000000 -0.000000 0.000000 5.168404 -0.572002 3.737910 3.756289 0.900838 6.309578 2.700438 -3.248990 -10.160585 0.000000 -0.000000 0.000000 -2.092812 0.623781 6.748923 3.294287 -3.847509 5.835000 0.061493 -3.220552 5.787217 5.181896 -10.509564 13.206061 2.928883 -14.704345 12.812175 -23.499662 8.560141 3.991036 -62.053963 -9.779851 11.015254 12.580886 -42.722402 1.368570 2.008049 -0.045706 -17.230423 22.093819 -6.747909 -1.096016 62.244272 1.924425 11.250293 -19.023476 37.728054 -4.921062 6.388577 -0.558372 -10.761576 
